<svg width="24" height="28" viewBox="0 0 24 28" fill="none" xmlns="http://www.w3.org/2000/svg">
<path d="M6.66667 16.6667C6.28889 16.6667 5.97244 16.5387 5.71733 16.2827C5.46222 16.0267 5.33422 15.7103 5.33333 15.3334C5.33333 14.9556 5.46133 14.6392 5.71733 14.3841C5.97333 14.129 6.28978 14.001 6.66667 14.0001C7.04444 14.0001 7.36133 14.1281 7.61733 14.3841C7.87333 14.6401 8.00089 14.9565 8 15.3334C8 15.7112 7.872 16.0281 7.616 16.2841C7.36 16.5401 7.04356 16.6676 6.66667 16.6667ZM12 16.6667C11.6222 16.6667 11.3058 16.5387 11.0507 16.2827C10.7956 16.0267 10.6676 15.7103 10.6667 15.3334C10.6667 14.9556 10.7947 14.6392 11.0507 14.3841C11.3067 14.129 11.6231 14.001 12 14.0001C12.3778 14.0001 12.6947 14.1281 12.9507 14.3841C13.2067 14.6401 13.3342 14.9565 13.3333 15.3334C13.3333 15.7112 13.2053 16.0281 12.9493 16.2841C12.6933 16.5401 12.3769 16.6676 12 16.6667ZM17.3333 16.6667C16.9556 16.6667 16.6391 16.5387 16.384 16.2827C16.1289 16.0267 16.0009 15.7103 16 15.3334C16 14.9556 16.128 14.6392 16.384 14.3841C16.64 14.129 16.9564 14.001 17.3333 14.0001C17.7111 14.0001 18.028 14.1281 18.284 14.3841C18.54 14.6401 18.6676 14.9565 18.6667 15.3334C18.6667 15.7112 18.5387 16.0281 18.2827 16.2841C18.0267 16.5401 17.7102 16.6676 17.3333 16.6667ZM2.66667 27.3334C1.93333 27.3334 1.30578 27.0725 0.784 26.5507C0.262222 26.029 0.000888889 25.401 0 24.6667V6.00008C0 5.26675 0.261333 4.63919 0.784 4.11741C1.30667 3.59564 1.93422 3.3343 2.66667 3.33341H4V0.666748H6.66667V3.33341H17.3333V0.666748H20V3.33341H21.3333C22.0667 3.33341 22.6947 3.59475 23.2173 4.11741C23.74 4.64008 24.0009 5.26764 24 6.00008V24.6667C24 25.4001 23.7391 26.0281 23.2173 26.5507C22.6956 27.0734 22.0676 27.3343 21.3333 27.3334H2.66667ZM2.66667 24.6667H21.3333V11.3334H2.66667V24.6667ZM2.66667 8.66675H21.3333V6.00008H2.66667V8.66675Z" fill="#0075C9"/>
</svg>
