<svg width="48" height="48" viewBox="0 0 48 48" fill="none" xmlns="http://www.w3.org/2000/svg">
<g id="Frame" clip-path="url(#clip0_2718_227)">
<g id="Group">
<g id="Group_2">
<path id="Vector" d="M9.35045 44.8831H6.85694C4.75304 44.8831 3.03876 43.1688 3.03876 41.0649V38.4935C3.03876 37.6364 2.33746 36.9351 1.48032 36.9351C0.623174 36.9351 -0.078125 37.6364 -0.078125 38.4935V41.0649C-0.078125 44.8831 3.03876 47.9221 6.77902 47.9221H9.35045C10.2076 47.9221 10.9089 47.2208 10.9089 46.3636C10.9089 45.5065 10.2076 44.8831 9.35045 44.8831Z" fill="white"/>
<path id="Vector_2" d="M46.4413 37.0132C45.5841 37.0132 44.8828 37.7145 44.8828 38.5716V41.1431C44.8828 43.2469 43.1685 44.9612 41.0646 44.9612H38.5711C37.714 44.9612 37.0127 45.6625 37.0127 46.5197C37.0127 47.3768 37.714 48.0781 38.5711 48.0781H41.0646C44.8828 48.0781 47.9218 44.9612 47.9218 41.221V38.6495C47.9997 37.7145 47.2984 37.0132 46.4413 37.0132Z" fill="white"/>
<path id="Vector_3" d="M41.065 0H37.9481C37.0909 0 36.3896 0.701299 36.3896 1.55844C36.3896 2.41558 37.0909 3.11688 37.9481 3.11688H41.065C43.1689 3.11688 44.8832 4.83117 44.8832 6.93506V10.1299C44.8832 10.987 45.5845 11.6883 46.4416 11.6883C47.2987 11.6883 48 10.987 48 10.1299V6.85714C48 3.11688 44.8832 0 41.065 0Z" fill="white"/>
<path id="Vector_4" d="M9.42857 0H6.85714C3.11688 0 0 3.11688 0 6.85714V9.35065C0 10.2078 0.701299 10.9091 1.55844 10.9091C2.41558 10.9091 3.11688 10.2078 3.11688 9.35065V6.85714C3.11688 4.75325 4.83117 3.03896 6.93506 3.03896H9.50649C10.3636 3.03896 11.0649 2.33766 11.0649 1.48052C11.0649 0.623377 10.2857 0 9.42857 0Z" fill="white"/>
<path id="Vector_5" d="M37.0907 28.4418C37.1687 28.1301 37.0907 27.8184 36.857 27.5846L15.5063 8.02618C15.2725 7.79241 14.9609 7.79241 14.6492 7.87033C14.3375 8.02618 14.1816 8.25994 14.1816 8.57163V37.5586C14.1816 37.8703 14.3375 38.182 14.6492 38.2599C14.9609 38.4158 15.2725 38.3379 15.5063 38.1041L21.2725 32.6496L24.857 40.7535C24.9349 40.9872 25.1687 41.1431 25.4024 41.221C25.4803 41.221 25.4803 41.221 25.5583 41.221C25.792 41.221 25.9479 41.1431 26.1037 40.9872C27.5063 39.5846 28.4414 39.4288 29.4544 39.3509C30.1557 39.2729 30.857 39.195 31.6362 38.7275C31.9479 38.5716 32.1037 38.1041 31.9479 37.7145L28.3635 29.5327L36.3115 28.9872C36.7011 28.9093 36.9349 28.7535 37.0907 28.4418ZM24.5453 26.9612C24.3894 27.195 24.3894 27.4288 24.4674 27.6625L28.2855 36.4677C28.2076 36.4677 28.1297 36.4677 28.0518 36.5457C27.5842 36.6236 27.1167 36.7015 26.4933 37.169L22.6751 28.5197C22.5972 28.208 22.4414 28.0522 22.2076 28.0522C22.1297 28.0522 22.1297 28.0522 22.0518 28.0522C21.818 28.0522 21.6622 28.1301 21.5063 28.2859L17.1427 32.3379V13.3249L31.1687 26.2599L25.1687 26.6496C24.9349 26.6496 24.7011 26.8054 24.5453 26.9612Z" fill="white"/>
</g>
</g>
</g>
<defs>
<clipPath id="clip0_2718_227">
<rect width="48" height="48" fill="white"/>
</clipPath>
</defs>
</svg>
