<svg width="86" height="113" viewBox="0 0 86 113" fill="none" xmlns="http://www.w3.org/2000/svg">
<path d="M68.1288 24.5762C57.1741 24.5762 50.2165 27.8737 43.4893 31.0563C37.3265 33.9862 31.4978 36.7437 22.3746 36.7437C16.3415 36.7536 10.3867 35.3817 4.96915 32.7338C3.81723 32.2283 2.66529 31.6538 1.42122 31.0908L0.51123 30.6657V67.4323C0.51123 102.326 42.994 112.989 42.994 112.989C42.994 112.989 85.4767 102.326 85.4767 67.4323V27.7933C79.9546 25.6207 74.0648 24.5285 68.1288 24.5762ZM74.833 67.4438C74.833 77.9798 69.4419 86.9761 58.7982 94.1686C53.8847 97.4221 48.5683 100.025 42.9824 101.913C34.919 99.2355 11.1549 89.4234 11.1549 67.4438V47.4864C14.7888 48.6011 18.5729 49.1514 22.3746 49.1179C31.5093 49.1179 37.3496 46.3605 43.4893 43.4306C50.2165 40.2365 57.1971 36.9505 68.1288 36.9505C70.371 36.9406 72.6111 37.0865 74.833 37.3871V67.4438Z" fill="white"/>
<path d="M74.833 0.448039C72.5959 0.143674 70.3404 -0.00606427 68.0827 -7.1155e-05C57.1164 -7.1155e-05 50.1589 3.28596 43.4317 6.48007C37.2689 9.40991 31.4402 12.1674 22.317 12.1674C18.536 12.1875 14.7734 11.6414 11.1549 10.5474C7.80039 9.44463 4.53489 8.08878 1.3867 6.49157L0.51123 6.07793V18.4982L1.3867 18.9118C4.53291 20.5101 7.79879 21.8623 11.1549 22.9561C14.7709 24.0614 18.5352 24.6078 22.317 24.5762C31.4517 24.5762 37.292 21.8186 43.4432 18.8888C50.1704 15.7062 57.1395 12.4087 68.0827 12.4087C70.3445 12.4069 72.6038 12.5605 74.8444 12.8683C78.4949 13.3668 82.0722 14.3003 85.4997 15.6488V3.24C82.0685 1.88814 78.4875 0.95082 74.833 0.448039Z" fill="white"/>
</svg>
