<svg width="234" height="234" viewBox="0 0 234 234" fill="none" xmlns="http://www.w3.org/2000/svg">
<path d="M157.219 71.2969V60.3281C157.219 59.3227 156.396 58.5 155.391 58.5H67.6406C66.6352 58.5 65.8125 59.3227 65.8125 60.3281V71.2969C65.8125 72.3023 66.6352 73.125 67.6406 73.125H155.391C156.396 73.125 157.219 72.3023 157.219 71.2969ZM67.6406 91.4062C66.6352 91.4062 65.8125 92.2289 65.8125 93.2344V104.203C65.8125 105.209 66.6352 106.031 67.6406 106.031H109.688C110.693 106.031 111.516 105.209 111.516 104.203V93.2344C111.516 92.2289 110.693 91.4062 109.688 91.4062H67.6406ZM153.562 117.914C126.301 117.914 104.203 140.012 104.203 167.273C104.203 194.535 126.301 216.633 153.562 216.633C180.824 216.633 202.922 194.535 202.922 167.273C202.922 140.012 180.824 117.914 153.562 117.914ZM178.128 191.839C171.57 198.397 162.84 202.008 153.562 202.008C144.285 202.008 135.555 198.397 128.997 191.839C122.439 185.28 118.828 176.551 118.828 167.273C118.828 157.996 122.439 149.266 128.997 142.708C135.555 136.15 144.285 132.539 153.562 132.539C162.84 132.539 171.57 136.15 178.128 142.708C184.686 149.266 188.297 157.996 188.297 167.273C188.297 176.551 184.686 185.28 178.128 191.839ZM100.547 194.695H47.5312V33.8203H175.5V112.43C175.5 113.435 176.323 114.258 177.328 114.258H190.125C191.13 114.258 191.953 113.435 191.953 112.43V24.6797C191.953 20.635 188.685 17.3672 184.641 17.3672H38.3906C34.3459 17.3672 31.0781 20.635 31.0781 24.6797V203.836C31.0781 207.881 34.3459 211.148 38.3906 211.148H100.547C101.552 211.148 102.375 210.326 102.375 209.32V196.523C102.375 195.518 101.552 194.695 100.547 194.695Z" fill="black"/>
<path d="M160.367 167L170.97 177.602L164.602 183.97L154 173.367L143.367 184L137 177.633L147.633 167L137 156.367L143.367 150L154 160.633L164.633 150.03L171 156.398L160.367 167Z" fill="black"/>
</svg>
