<svg width="22" height="22" viewBox="0 0 22 22" fill="none" xmlns="http://www.w3.org/2000/svg">
<path d="M12.5313 1.65818C13.2218 0.984 14.1501 0.609123 15.1151 0.61481C16.0801 0.620497 17.004 1.00629 17.6864 1.68856C18.3689 2.37082 18.7549 3.29458 18.7609 4.25957C18.7669 5.22456 18.3923 6.15302 17.7183 6.84367L17.3103 7.25017L17.4393 7.37917C18.0017 7.94176 18.3176 8.70468 18.3176 9.50017C18.3176 10.2957 18.0017 11.0586 17.4393 11.6212L15.2793 13.7812C15.1378 13.9178 14.9484 13.9934 14.7517 13.9917C14.5551 13.99 14.367 13.9111 14.2279 13.772C14.0889 13.633 14.01 13.4449 14.0083 13.2482C14.0066 13.0516 14.0822 12.8621 14.2188 12.7207L16.3788 10.5607C16.66 10.2794 16.818 9.89792 16.818 9.50017C16.818 9.10243 16.66 8.72097 16.3788 8.43967L16.2498 8.31067L7.78079 16.7812C7.68428 16.8772 7.56347 16.9451 7.43129 16.9777L1.43129 18.4777C1.301 18.51 1.16441 18.5068 1.03578 18.4684C0.907148 18.43 0.79119 18.3577 0.70001 18.2592C0.608829 18.1606 0.545769 18.0394 0.517411 17.9082C0.489053 17.777 0.496437 17.6406 0.538792 17.5132L2.41379 11.8882C2.45036 11.7781 2.51198 11.6779 2.59379 11.5957L12.5313 1.65818ZM16.6563 2.71868C16.2499 2.3129 15.6991 2.08498 15.1248 2.08498C14.5505 2.08498 13.9997 2.3129 13.5933 2.71868L3.78029 12.5302L2.39279 16.6912L6.86579 15.5737L16.6563 5.78317C17.0625 5.37672 17.2907 4.82558 17.2907 4.25093C17.2907 3.67627 17.0625 3.12513 16.6563 2.71868ZM6.45029 21.5002C4.59779 21.5002 3.13829 20.6512 2.16779 19.8397L4.09379 19.3597C4.8105 19.7725 5.62172 19.9931 6.44879 20.0002C7.05779 20.0002 7.68479 19.7542 8.35379 19.3147C9.02429 18.8752 9.67079 18.2842 10.3248 17.6722L10.4943 17.5117C11.0718 16.9702 11.6703 16.4062 12.2433 16.0177C12.8553 15.6007 13.6683 15.2227 14.5188 15.5512C15.0828 15.7672 15.4488 16.1662 15.7053 16.6552C15.9468 17.1142 16.1133 17.6872 16.2753 18.3127C16.3503 18.5977 16.4748 18.8737 16.6203 19.0597C16.6671 19.1252 16.7249 19.1821 16.7913 19.2277C16.8288 19.2502 16.8453 19.2502 16.8498 19.2502C17.0328 19.2502 17.3463 19.1272 17.7948 18.8212C18.0723 18.6322 18.3108 18.4432 18.5478 18.2527C18.6948 18.1357 18.8433 18.0172 19.0008 17.9002C19.4193 17.5867 19.7808 17.3767 20.0463 17.2432C20.1821 17.1743 20.3213 17.1122 20.4633 17.0572L20.4933 17.0452L20.5038 17.0422L20.5083 17.0407H20.5098L20.7498 17.7502L20.5113 17.0392C20.6989 16.9781 20.9031 16.9935 21.0795 17.0819C21.2559 17.1703 21.3903 17.3247 21.4536 17.5116C21.517 17.6985 21.5041 17.9028 21.4179 18.0803C21.3316 18.2577 21.1789 18.394 20.9928 18.4597L20.9868 18.4627C20.8975 18.4987 20.8099 18.5388 20.7243 18.5827C20.5293 18.6787 20.2428 18.8437 19.8993 19.1017C19.8108 19.1662 19.6968 19.2577 19.5648 19.3627C19.2933 19.5772 18.9513 19.8487 18.6378 20.0617C18.1728 20.3797 17.5263 20.7517 16.8498 20.7517C16.1958 20.7517 15.7233 20.3542 15.4308 19.9762C15.1459 19.5912 14.9394 19.1539 14.8233 18.6892C14.6583 18.0547 14.5293 17.6392 14.3793 17.3542C14.2443 17.1022 14.1243 17.0062 13.9803 16.9492C13.8573 16.9042 13.6128 16.8997 13.0878 17.2582C12.6183 17.5762 12.1053 18.0577 11.5008 18.6262L11.3508 18.7657C10.7043 19.3732 9.97079 20.0482 9.17729 20.5687C8.38229 21.0907 7.46729 21.5002 6.45029 21.5002Z" fill="black"/>
</svg>
