<svg width="172" height="200" viewBox="0 0 172 200" fill="none" xmlns="http://www.w3.org/2000/svg">
<path d="M126.219 54.2969V43.3281C126.219 42.3227 125.396 41.5 124.391 41.5H36.6406C35.6352 41.5 34.8125 42.3227 34.8125 43.3281V54.2969C34.8125 55.3023 35.6352 56.125 36.6406 56.125H124.391C125.396 56.125 126.219 55.3023 126.219 54.2969ZM36.6406 74.4062C35.6352 74.4062 34.8125 75.2289 34.8125 76.2344V87.2031C34.8125 88.2086 35.6352 89.0312 36.6406 89.0312H78.6875C79.693 89.0312 80.5156 88.2086 80.5156 87.2031V76.2344C80.5156 75.2289 79.693 74.4062 78.6875 74.4062H36.6406ZM122.562 100.914C95.3006 100.914 73.2031 123.012 73.2031 150.273C73.2031 177.535 95.3006 199.633 122.562 199.633C149.824 199.633 171.922 177.535 171.922 150.273C171.922 123.012 149.824 100.914 122.562 100.914ZM147.128 174.839C140.57 181.397 131.84 185.008 122.562 185.008C113.285 185.008 104.555 181.397 97.9971 174.839C91.4387 168.28 87.8281 159.551 87.8281 150.273C87.8281 140.996 91.4387 132.266 97.9971 125.708C104.555 119.15 113.285 115.539 122.562 115.539C131.84 115.539 140.57 119.15 147.128 125.708C153.686 132.266 157.297 140.996 157.297 150.273C157.297 159.551 153.686 168.28 147.128 174.839ZM142.9 132.906H132.777C132.183 132.906 131.635 133.18 131.292 133.66L116.781 153.724L111.502 146.434C111.333 146.199 111.11 146.008 110.852 145.876C110.593 145.745 110.307 145.678 110.017 145.68H99.9395C98.4541 145.68 97.5857 147.371 98.4541 148.582L115.319 171.914C116.05 172.919 117.535 172.919 118.266 171.914L144.363 135.808C145.254 134.597 144.386 132.906 142.9 132.906ZM69.5469 177.695H16.5312V16.8203H144.5V95.4297C144.5 96.4352 145.323 97.2578 146.328 97.2578H159.125C160.13 97.2578 160.953 96.4352 160.953 95.4297V7.67969C160.953 3.63496 157.685 0.367188 153.641 0.367188H7.39062C3.3459 0.367188 0.078125 3.63496 0.078125 7.67969V186.836C0.078125 190.881 3.3459 194.148 7.39062 194.148H69.5469C70.5523 194.148 71.375 193.326 71.375 192.32V179.523C71.375 178.518 70.5523 177.695 69.5469 177.695Z" fill="black"/>
</svg>
